<svg width="139" height="24" viewBox="0 0 139 24" fill="none" xmlns="http://www.w3.org/2000/svg">
<g clip-path="url(#clip0_17_348)">
<path d="M32.8052 16.6942C32.9376 16.8595 33.07 16.9917 33.1693 17.0909C33.1031 12.8595 33.0038 8.6281 32.9376 4.33058H35.8176V19.7025H32.6728C28.7335 15.405 24.2646 11.438 20.557 6.71074V19.7025H17.8426V4.36364C18.935 4.36364 20.0274 4.36364 21.1198 4.36364C21.2191 4.36364 21.3184 4.46281 21.3846 4.52892" fill="white"/>
<path d="M111.425 12.0331C111.425 14.0496 110.862 15.9008 109.439 17.3884C106.956 19.9339 103.447 19.6694 101.296 16.8264C99.3425 14.1818 99.3094 10.0165 101.262 7.3719C102.289 5.98347 103.58 5.05785 105.334 4.99174C107.519 4.89256 109.108 6.01653 110.233 7.76859C111.061 9.05785 111.458 10.5124 111.425 12.0661" fill="#1A94D2"/>
<path d="M120.628 17.4546V19.7686C120.164 20.0331 119.701 20.2975 119.237 20.5289C116.192 22.1488 113.014 23.405 109.571 23.8678C105.864 24.3306 102.454 23.6033 99.3094 21.5868C96.3632 19.6694 94.8736 16.8595 94.5756 13.4215C94.3108 10.6446 94.7742 7.96695 95.6349 5.35537C95.668 5.2562 95.7342 5.15703 95.8004 5.02479C97.919 4.09917 100.137 3.40496 102.487 3.23967C97.0915 6.08265 96.1315 14.0827 99.8059 18.8099C101.494 20.9917 103.844 21.8513 106.526 21.9174C111.491 22.0165 115.861 20.562 120.065 17.8182" fill="#5AB847"/>
<path d="M90.835 6.64463V4.19835C91.9936 3.60331 93.2184 2.94215 94.5094 2.38017C97.6211 0.991735 100.832 -6.63102e-07 104.308 0.132231C108.082 0.29752 111.458 1.52066 114.073 4.36364C115.662 6.08265 116.424 8.16529 116.688 10.4793C117.02 13.2893 116.523 16.0331 115.662 18.7108C115.596 18.9091 115.464 19.1405 115.298 19.2066C113.345 20.0992 111.293 20.6612 109.174 20.9256C109.108 20.9256 109.075 20.9256 108.909 20.8926C110.2 20.1653 111.193 19.2397 111.955 18.0827C114.735 13.9174 114.106 7.60331 110.564 4.3967C109.042 3.00827 107.188 2.41322 105.202 2.31405C100.998 2.1157 97.0915 3.17356 93.417 5.19009C92.5894 5.6529 91.795 6.14876 90.9012 6.71075" fill="#5AB847"/>
<path d="M0.132385 4.33058H13.0426V5.91736H3.24408V10.9091H12.4798V12.4959H3.24408V18.1157H13.6053V19.7355H0.132385V4.33058Z" fill="white"/>
<path d="M38.7969 4.36364H42.1734C44.292 8.79339 46.4106 13.2562 48.4961 17.5537C50.7471 13.2562 53.0312 8.82645 55.3484 4.3967H58.6588C55.7788 9.55372 52.965 14.6446 50.1181 19.7686H46.6754C44.0934 14.6777 41.4782 9.58678 38.83 4.3967" fill="white"/>
<path d="M64.4187 4.36364H61.4063V19.7355H64.4187V4.36364Z" fill="white"/>
<path d="M90.6032 4.33058C89.5439 4.82645 89.8088 4.59504 88.7163 5.28926C87.8888 5.8843 88.0874 5.71901 87.5908 6.1157C85.075 8.13223 80.2419 11.9669 80.2419 11.9669L88.1536 18.5124L93.6156 21.3554C94.1453 21.6198 94.708 21.8182 95.2708 22.0496C93.7149 20.9587 92.1922 19.9339 90.5701 18.876C90.5701 14.0165 90.5701 9.15702 90.5701 4.33058M87.6239 16.3636C86.4322 15.0744 85.4391 13.8512 84.8102 12.1653C85.5053 11.0413 86.7633 9.88429 87.657 9.05785L87.5908 16.3636H87.6239Z" fill="#5AB847"/>
<path d="M79.6792 11.8016C78.8186 11.5702 77.1634 11.0744 76.1703 10.7769C75.1772 10.4463 74.1841 10.1488 73.2903 9.61983C71.9993 8.89256 71.9662 7.47107 73.191 6.57851C74.0186 5.95041 75.0448 5.75206 76.0379 5.71901C77.8586 5.61983 79.6792 5.71901 81.4337 6.38016C81.7316 5.85124 81.9634 5.35537 82.2613 4.82644C82.1289 4.79339 82.0958 4.76033 82.0296 4.72727C79.613 4.03306 77.1303 3.86777 74.6476 4.2314C72.9924 4.49587 71.4035 4.95868 70.1456 6.18182C68.9869 7.30578 68.9538 9.09091 70.1125 10.2149C71.2049 11.3058 72.6283 11.7686 74.0517 12.2314C75.4752 12.6612 76.9317 13.0248 78.322 13.5207C79.2158 13.8182 80.0103 14.3802 80.1427 15.438C80.2751 16.5289 79.7124 17.3223 78.5206 17.8182C76.6669 18.5785 74.7138 18.5454 72.7938 18.2479C71.7014 18.0826 70.6421 17.7851 69.5166 17.5207C69.2849 17.9835 69.0532 18.4793 68.7883 19.0083C68.8876 19.0413 68.9207 19.1074 68.9869 19.1074C70.3773 19.3719 71.7345 19.7686 73.1248 19.9008C75.6738 20.1653 78.1896 20.0661 80.573 18.9752C82.162 18.2479 83.3537 17.1901 83.2213 15.2397C83.2213 15.2066 83.0558 13.0248 79.6792 11.8016Z" fill="white"/>
<path d="M90.6363 4.33058H87.5908V19.8017H90.6363V4.33058Z" fill="white"/>
<path d="M126.255 6.7438C125.825 6.5124 120.959 4.2314 120.495 4.03306C118.973 3.33884 117.45 2.64463 115.927 1.95041C115.993 2.01653 116.026 2.08264 116.093 2.1157C117.549 3.07438 119.502 4.39669 120.959 5.38843C121.191 5.55372 121.753 6.84297 121.952 7.17355C123.64 10.1488 124.004 11.8347 122.746 14.9752C122.283 16.0992 120.893 18.5124 120.893 19.7025H123.773V17.9174C125.792 16.3636 127.712 14.876 129.665 13.3884L126.288 6.7438H126.255ZM123.739 14.9091V7.96694C124.931 9.15702 125.924 10.4463 126.553 12.0331C125.626 12.9587 124.766 13.8512 123.739 14.9091Z" fill="#5AB847"/>
<path d="M135.855 16.7273C135.988 16.8926 136.12 17.0248 136.219 17.124C136.153 12.8926 136.054 8.66116 135.988 4.36364C137.014 4.36364 138.007 4.36364 138.967 4.36364C138.967 9.48761 138.967 14.5785 138.967 19.7355C137.941 19.7355 136.815 19.7355 135.69 19.7355C131.75 15.438 127.414 11.4711 123.706 6.71075C123.706 11.0413 123.706 15.3388 123.706 19.7025C122.846 19.7025 121.786 19.7025 120.826 19.7025V4.36364C121.919 4.36364 123.011 4.36364 124.104 4.36364C124.203 4.36364 124.302 4.46281 124.368 4.52893" fill="white"/>
</g>
<defs>
<clipPath id="clip0_17_348">
<rect width="139" height="24" fill="white"/>
</clipPath>
</defs>
</svg>
